<svg width="22" height="20" viewBox="0 0 22 20" fill="none" xmlns="http://www.w3.org/2000/svg">
<path d="M20.1819 0.246754C19.921 0.265731 19.665 0.326922 19.4238 0.427942H19.4206C19.189 0.519754 18.0881 0.982879 16.4143 1.68488L10.4164 4.21094C6.11262 6.02282 1.88194 7.80707 1.88194 7.80707L1.93231 7.78757C1.93231 7.78757 1.64063 7.88344 1.33594 8.09226C1.1477 8.21204 0.98573 8.36876 0.859814 8.55294C0.710314 8.77232 0.590064 9.10788 0.634751 9.45482C0.707876 10.0414 1.08813 10.3933 1.36113 10.5874C1.63738 10.7841 1.90063 10.8759 1.90063 10.8759H1.90713L5.87456 12.2124C6.0525 12.7836 7.08356 16.1734 7.33137 16.9542C7.47762 17.4206 7.61981 17.7123 7.79775 17.9349C7.88387 18.0486 7.98462 18.1437 8.10569 18.2201C8.16862 18.2567 8.23573 18.2856 8.30556 18.3062L8.26494 18.2964C8.27712 18.2997 8.28687 18.3094 8.29581 18.3127C8.32831 18.3216 8.35025 18.3249 8.39169 18.3314C9.01975 18.5215 9.52431 18.1315 9.52431 18.1315L9.55275 18.1088L11.8952 15.9759L15.8212 18.9879L15.9106 19.0261C16.7287 19.3852 17.5575 19.1853 17.9954 18.8327C18.4366 18.4776 18.6081 18.0234 18.6081 18.0234L18.6365 17.9503L21.6704 2.408C21.7565 2.0245 21.7784 1.66538 21.6834 1.31682C21.5853 0.96405 21.359 0.660648 21.0488 0.466129C20.7883 0.307785 20.4863 0.231356 20.1819 0.246754ZM20.0998 1.91238C20.0966 1.96357 20.1063 1.95788 20.0836 2.05619V2.06513L17.0781 17.4458C17.0651 17.4677 17.0432 17.5156 16.9831 17.5636C16.9197 17.6139 16.8693 17.6456 16.6052 17.5408L11.8034 13.8594L8.90275 16.5033L9.51212 12.6114L17.3576 5.29888C17.681 4.99825 17.5729 4.93488 17.5729 4.93488C17.5957 4.566 17.0846 4.82682 17.0846 4.82682L7.19162 10.9555L7.18837 10.9393L2.44663 9.34269V9.33944L2.43444 9.33701C2.44275 9.33425 2.45089 9.33099 2.45881 9.32726L2.48481 9.31426L2.51 9.30532C2.51 9.30532 6.74394 7.52107 11.0477 5.70919C13.2025 4.80163 15.3735 3.88757 17.0432 3.18232C18.7129 2.48113 19.9471 1.96682 20.0169 1.93919C20.0836 1.91319 20.0519 1.91319 20.0998 1.91319V1.91238Z" fill="white"/>
</svg>
